<svg width="512" height="512" viewBox="0 0 512 512" fill="none" xmlns="http://www.w3.org/2000/svg">
<path fill-rule="evenodd" clip-rule="evenodd" d="M512 159.458C512 153.379 512.002 147.301 511.965 141.222C511.935 136.101 511.876 130.982 511.737 125.864C511.436 114.709 510.778 103.458 508.794 92.4269C506.782 81.2368 503.496 70.8223 498.318 60.655C493.228 50.6617 486.579 41.5172 478.646 33.5893C470.714 25.6614 461.567 19.0166 451.57 13.9296C441.392 8.75057 430.967 5.46608 419.764 3.45474C408.732 1.47386 397.478 0.817084 386.323 0.515726C381.201 0.377164 376.079 0.318756 370.956 0.287067C364.874 0.249785 358.793 0.252892 352.711 0.252892L282.095 0H229.28L159.914 0.252892C153.82 0.252892 147.726 0.249785 141.633 0.287067C136.499 0.318756 131.368 0.377164 126.236 0.515726C115.055 0.817084 103.776 1.47448 92.7173 3.45785C81.5 5.46856 71.0587 8.75181 60.8673 13.9271C50.8492 19.0148 41.6823 25.6602 33.734 33.5893C25.7868 41.5166 19.1253 50.6592 14.0258 60.6507C8.8338 70.8229 5.54186 81.2437 3.52494 92.4399C1.5391 103.467 0.881081 114.714 0.578481 125.864C0.44054 130.983 0.38089 136.102 0.349823 141.222C0.312541 147.301 0 154.853 0 160.931L0.00186406 229.337L0 282.717L0.315648 352.576C0.315648 358.663 0.313163 364.75 0.349823 370.836C0.38089 375.964 0.44054 381.09 0.579103 386.216C0.881081 397.385 1.54034 408.652 3.52805 419.698C5.54435 430.903 8.83566 441.332 14.0234 451.513C19.1234 461.52 25.7862 470.677 33.734 478.616C41.6817 486.555 50.8461 493.208 60.8623 498.303C71.06 503.489 81.5062 506.777 92.7303 508.791C103.784 510.775 115.059 511.433 126.236 511.735C131.368 511.873 136.5 511.932 141.633 511.963C147.727 512.001 153.82 511.998 159.914 511.998L229.907 512H282.853L352.711 511.998C358.793 511.998 364.874 512.001 370.956 511.963C376.079 511.932 381.201 511.873 386.323 511.735C397.482 511.433 408.74 510.774 419.777 508.789C430.973 506.775 441.394 503.487 451.566 498.305C461.565 493.211 470.713 486.556 478.646 478.616C486.578 470.678 493.226 461.523 498.316 451.517C503.497 441.332 506.783 430.897 508.796 419.685C510.778 408.643 511.436 397.381 511.737 386.216C511.876 381.089 511.935 375.963 511.965 370.836C512.003 364.75 512 358.663 512 352.576C512 352.576 511.996 283.951 511.996 282.717V229.281C511.996 228.37 512 159.458 512 159.458" fill="url(#paint0_linear_2019_15)"/>
<path fill-rule="evenodd" clip-rule="evenodd" d="M159.451 361.191H101.903V153.692H156.749V190.301H159.181C167.827 165.85 189.036 150.99 217 150.99C245.504 150.99 266.713 166.255 273.332 190.301H275.494C284.005 166.526 307.645 150.99 338.041 150.99C376.676 150.99 403.424 176.657 403.424 221.642V280.848C395.002 275.32 385.048 272.099 374.583 272.099C364.12 272.099 354.305 275.127 346.011 280.35V232.99C346.011 209.89 332.232 198.407 313.859 198.407C292.92 198.407 280.627 212.997 280.627 234.476V361.191H224.835V231.774C224.835 211.376 212.136 198.407 193.224 198.407C174.041 198.407 159.451 213.672 159.451 236.637V361.191Z" fill="#121214"/>
<path d="M374.583 361.258C393.603 361.258 410.098 345.292 410.246 325.445C410.098 305.897 393.603 289.931 374.583 289.931C354.968 289.931 338.771 305.897 338.92 325.445C338.771 345.292 354.968 361.258 374.583 361.258Z" fill="#7B2FFC"/>
<defs>
<linearGradient id="paint0_linear_2019_15" x1="256" y1="0" x2="256" y2="512" gradientUnits="userSpaceOnUse">
<stop stop-color="white"/>
<stop offset="1" stop-color="#F5F5F7"/>
</linearGradient>
</defs>
</svg>
