<svg width="415" height="283" viewBox="0 0 415 283" fill="none" xmlns="http://www.w3.org/2000/svg">
<path d="M367.001 283C392.6 283 414.8 261.51 415 234.799C414.8 208.49 392.6 187 367.001 187C340.601 187 318.801 208.49 319.001 234.799C318.801 261.51 340.601 283 367.001 283Z" fill="#7B2FFC"/>
<path fill-rule="evenodd" clip-rule="evenodd" d="M77.4545 282.909H0V3.63635H73.8182V52.9091H77.0909C88.7273 20 117.273 0 154.909 0C193.273 0 221.818 20.5454 230.727 52.9091H233.636C245.091 20.9091 276.909 0 317.818 0C369.818 0 405.818 34.5455 405.818 95.0909V174.775C394.483 167.336 381.085 163 367.001 163C352.919 163 339.709 167.077 328.545 174.105V110.364C328.545 79.2727 310 63.8182 285.273 63.8182C257.091 63.8182 240.545 83.4545 240.545 112.364V282.909H165.455V108.727C165.455 81.2727 148.364 63.8182 122.909 63.8182C97.0909 63.8182 77.4545 84.3636 77.4545 115.273V282.909Z" fill="white"/>
</svg>
